<svg clip-rule="evenodd" fill-rule="evenodd" height="512" image-rendering="optimizeQuality" shape-rendering="geometricPrecision" text-rendering="geometricPrecision" viewBox="0 0 1707 1707" width="512" xmlns="http://www.w3.org/2000/svg"><g id="Layer_x0020_1"><g id="_251235232"><g><g id="_251233840"><path d="m1690 1567h-1673c-10 0-17-7-17-16v-1042c0-9 7-17 17-17h1673c9 0 17 8 17 17v1042c0 9-8 16-17 16zm-1657-33h1640v-1008h-1640z"/></g><g id="_251233888"><path d="m1690 526h-1673c-10 0-17-8-17-17v-353c0-9 7-17 17-17h1673c9 0 17 8 17 17v353c0 9-8 17-17 17zm-1657-34h1640v-319h-1640z"/></g><g id="_251233864"><path d="m205 424c-50 0-91-41-91-92 0-50 41-91 91-91 51 0 92 41 92 91 0 51-41 92-92 92zm0-150c-32 0-58 26-58 58 0 33 26 59 58 59s59-26 59-59c0-32-27-58-59-58z"/></g><g id="_251234392"><path d="m435 424c-50 0-91-41-91-92 0-50 41-91 91-91s92 41 92 91c0 51-42 92-92 92zm0-150c-32 0-58 26-58 58 0 33 26 59 58 59s58-26 58-59c0-32-26-58-58-58z"/></g><g id="_251234320"><path d="m665 424c-51 0-92-41-92-92 0-50 41-91 92-91 50 0 91 41 91 91 0 51-41 92-91 92zm0-150c-32 0-58 26-58 58 0 33 26 59 58 59s58-26 58-59c0-32-26-58-58-58z"/></g><g id="_251235064"><path d="m1576 349h-711c-10 0-17-7-17-17 0-9 7-16 17-16h711c9 0 17 7 17 16 0 10-8 17-17 17z"/></g><g><g><g id="_251235352"><path d="m1557 709h-670c-10 0-17-7-17-17 0-9 7-16 17-16h670c9 0 17 7 17 16 0 10-8 17-17 17z"/></g><g id="_251234896"><path d="m1557 878h-670c-10 0-17-8-17-17s7-17 17-17h670c9 0 17 8 17 17s-8 17-17 17z"/></g><g id="_251234632"><path d="m1557 1046h-670c-10 0-17-7-17-16 0-10 7-17 17-17h670c9 0 17 7 17 17 0 9-8 16-17 16z"/></g><g id="_251235016"><path d="m1557 1215h-670c-10 0-17-7-17-17 0-9 7-16 17-16h670c9 0 17 7 17 16 0 10-8 17-17 17z"/></g><g id="_251234680"><path d="m1557 1384h-670c-10 0-17-8-17-17s7-17 17-17h670c9 0 17 8 17 17s-8 17-17 17z"/></g></g><g><g id="_251234296"><path d="m718 1417h-568c-10 0-17-8-17-17v-741c0-9 7-16 17-16h395c9 0 17 7 17 16v175h156c9 0 16 8 16 17v549c0 9-7 17-16 17zm-552-34h535v-515h-156c-9 0-17-8-17-17v-175h-362z"/></g><g id="_251234728"><path d="m718 868h-173c-9 0-17-8-17-17v-192c0-6 5-13 11-15 7-3 14-1 19 4l171 191c4 3 6 7 6 12 0 9-8 17-17 17zm-156-34h118l-118-131z"/></g><g><g id="_251241448"><path d="m593 982h-319c-9 0-16-7-16-17 0-9 7-16 16-16h319c9 0 17 7 17 16 0 10-8 17-17 17z"/></g><g id="_251240944"><path d="m593 1089h-319c-9 0-16-8-16-17s7-17 16-17h319c9 0 17 8 17 17s-8 17-17 17z"/></g><g id="_251241016"><path d="m593 1195h-319c-9 0-16-7-16-16s7-17 16-17h319c9 0 17 8 17 17s-8 16-17 16z"/></g><g id="_251242240"><path d="m593 1302h-319c-9 0-16-7-16-16 0-10 7-17 16-17h319c9 0 17 7 17 17 0 9-8 16-17 16z"/></g></g><g id="_251235472"><path d="m455 883h-215c-9 0-17-7-17-16v-109c0-9 8-17 17-17h215c9 0 17 8 17 17v109c0 9-8 16-17 16zm-199-33h182v-75h-182z"/></g></g></g></g></g></g></svg>