<svg height="512" viewBox="0 0 64 64" width="512" xmlns="http://www.w3.org/2000/svg"><path d="m57 30.87012a.99942.99942 0 0 0 -1 1v24.12988a2.0026 2.0026 0 0 1 -2 2h-48a2.0026 2.0026 0 0 1 -2-2v-30a2.0026 2.0026 0 0 1 2-2h16.69043a1 1 0 0 0 0-2h-16.69043a3.95435 3.95435 0 0 0 -2 .55621v-2.55621a2.0026 2.0026 0 0 1 2-2h20.58984a1.00011 1.00011 0 0 0 0-2h-20.58984a4.004 4.004 0 0 0 -4 4v36a4.004 4.004 0 0 0 4 4h48a4.004 4.004 0 0 0 4-4v-24.12988a.99942.99942 0 0 0 -1-1z"/><path d="m17.06248 19a1.0001 1.0001 0 0 0 .00006 2h1.99994a1.0001 1.0001 0 0 0 0-2z"/><path d="m12.06248 19a1.0001 1.0001 0 0 0 .00006 2h1.99994a1.0001 1.0001 0 0 0 0-2z"/><path d="m7.06248 19a1.0001 1.0001 0 0 0 .00006 2h1.99994a1.0001 1.0001 0 0 0 0-2z"/><path d="m60.7959 8.59375c-6.53294-1.7139-15.797.157-20.95355 5.7951-8.36639-1.08578-14.52641 5.30089-15.811 10.93357a1.00033 1.00033 0 0 0 1.59948 1.02426 11.54822 11.54822 0 0 1 8.71088-2.409 22.12307 22.12307 0 0 0 -.54682 2.35334.99981.99981 0 0 0 .27832.876l1.07129 1.07129a3.45446 3.45446 0 0 0 -1.41748 2.7428 7.99537 7.99537 0 0 0 -7.38428 2.1449c-5.95215 5.95312-4.583 14.64648-4.52148 15.01367a.99981.99981 0 0 0 .82226.82226c6.1423 1.197 19.63329-2.54862 16.97852-12.5885a3.66629 3.66629 0 0 0 2.27148-1.38611l1.07129 1.07129a.998.998 0 0 0 .875.27832 22.06251 22.06251 0 0 0 2.34809-.54406 11.44937 11.44937 0 0 1 -2.40005 8.70122 1.00006 1.00006 0 0 0 1.01974 1.60456c5.67064-1.2962 11.99754-7.45045 10.941-15.81329a21.24758 21.24758 0 0 0 6.21041-12.71213 23.9898 23.9898 0 0 0 -.42089-8.2373.99785.99785 0 0 0 -.74221-.74219zm-29.69922 13.31445a13.06326 13.06326 0 0 0 -4.05468 1.19239 12.48783 12.48783 0 0 1 11.14074-6.80909 22.68478 22.68478 0 0 0 -3.20136 5.73175 13.258 13.258 0 0 0 -3.8847-.11505zm4.43848 16.168c-2.86888 2.7192-5.5495.0424-2.82808-2.82915 2.74017-2.64879 5.57837-.12342 2.82808 2.82912zm.708 4.94922c-4.27734 4.27832-10.418 4.2168-12.52929 4.04395-.16895-2.1084-.23438-8.251 4.043-12.5293a5.96761 5.96761 0 0 1 4.86129-1.69507c-2.7126 1.34636-4.07042 5.47-2.03209 7.3523 2.23132 2.13835 5.99692.542 7.3521-2.033a5.96619 5.96619 0 0 1 -1.69501 4.86109zm3.69043-8.90625a1.0204 1.0204 0 0 1 -1.41308 0 25.82186 25.82186 0 0 0 -2.50785-2.50582 1.0044 1.0044 0 0 1 .00005-1.4141l.54588-.54688 3.9209 3.9209zm12.6211 3.45508a12.4808 12.4808 0 0 1 -5.52246 5.53125 13.10454 13.10454 0 0 0 1.06756-7.95014 22.65946 22.65946 0 0 0 5.74021-3.20431 12.41532 12.41532 0 0 1 -1.28531 5.62317zm7.41894-20.2461c-1.007 9.631-9.13884 15.78715-15.96679 16.94434l-8.14746-8.14749a19.89933 19.89933 0 0 1 23.86523-15.71777 22.55161 22.55161 0 0 1 .24902 6.92089z"/><path d="m50.5 13.13184a6.50753 6.50753 0 0 0 -6.5 6.5c.32687 8.61121 12.67444 8.60887 13-.00009a6.50752 6.50752 0 0 0 -6.5-6.49991zm0 11a4.50019 4.50019 0 0 1 .0001-9 4.50019 4.50019 0 0 1 -.0001 9z"/><path d="m14.26172 54.3252a1.0004 1.0004 0 0 0 1.4766 1.34956 5.278 5.278 0 0 1 6.71287-.83869 1.00024 1.00024 0 0 0 1.09758-1.672 7.35321 7.35321 0 0 0 -3.6355-1.17575 5.36621 5.36621 0 0 0 -5.14868-4.56543 4.94239 4.94239 0 0 0 -4.876-7.4169 1.00032 1.00032 0 0 0 .22278 1.98819 2.95742 2.95742 0 0 1 2.2382 5.24613.97809.97809 0 0 0 -.263.37942c-4.19265.711-5.98634 5.151-6.06782 6.18706a1.00034 1.00034 0 0 0 1.96278.38656 6.23828 6.23828 0 0 1 3.4121-4.27436c2.40319-1.08388 6.10248-.64726 6.51294 2.259a7.43642 7.43642 0 0 0 -3.64485 2.14721z"/><circle cx="7" cy="20" r="1"/><circle cx="10" cy="20" r="1"/><circle cx="13" cy="20" r="1"/></svg>